<?xml version="1.0" encoding="UTF-8" standalone="no"?>
<svg width="14px" height="18px" viewBox="0 0 14 18" version="1.1" xmlns="http://www.w3.org/2000/svg" xmlns:xlink="http://www.w3.org/1999/xlink" xmlns:sketch="http://www.bohemiancoding.com/sketch/ns">
    <!-- Generator: Sketch 3.4.4 (17249) - http://www.bohemiancoding.com/sketch -->
    <title>Shape</title>
    <desc>Created with Sketch.</desc>
    <defs></defs>
    <g id="Page-1" stroke="none" stroke-width="1" fill="none" fill-rule="evenodd" sketch:type="MSPage">
        <g id="Reader-vertical" sketch:type="MSArtboardGroup" transform="translate(-714.000000, -13.000000)" fill="#948784">
            <g id="Blendle-2" sketch:type="MSLayerGroup" transform="translate(714.000000, 13.000000)">
                <path d="M10.3541448,10.798506 C10.3541448,9.564786 10.094506,8.605206 9.57576984,7.919586 C9.05703373,7.199946 8.34708929,6.839946 7.44864484,6.839946 C6.47960317,6.839946 5.73643651,7.183026 5.21733929,7.867926 C4.69860317,8.587926 4.43896429,9.565146 4.43896429,10.798506 C4.43896429,12.238506 4.68054762,13.284126 5.16497817,13.934826 C5.68443651,14.654466 6.4104504,15.014106 7.34500595,15.014106 C8.31260317,15.014106 9.05667262,14.654466 9.57558929,13.934826 C10.0946865,13.214466 10.3541448,12.169746 10.3541448,10.798506 M4.4393254,1.750626 L4.4393254,5.863626 C4.81939484,5.212566 5.37351984,4.681026 6.09989484,4.269906 C6.72208929,3.927546 7.48331151,3.755646 8.38283929,3.755646 C10.0082004,3.755646 11.3401587,4.423626 12.377631,5.761026 C13.4154643,7.097706 13.9342004,8.828406 13.9342004,10.953306 C13.9342004,13.079106 13.4154643,14.809986 12.377631,16.146486 C11.8588948,16.797726 11.1585198,17.269506 10.2761448,17.560206 C9.39376984,17.851086 8.51988095,17.997606 7.65556151,17.997606 C5.99571429,17.997606 4.45611706,17.569746 3.03839484,16.711686 C1.61976984,15.855786 0.911269841,14.210226 0.911269841,11.776266 L0.911269841,0.003366 L2.67493651,0.003366 C3.15918651,0.003366 3.57410317,0.174546 3.92040873,0.517086 C4.26599206,0.859266 4.4393254,1.271106 4.4393254,1.750626" id="Shape" sketch:type="MSShapeGroup"></path>
            </g>
        </g>
    </g>
</svg>