<?xml version="1.0" encoding="UTF-8" standalone="no"?>
<svg width="16px" height="16px" viewBox="0 0 16 16" version="1.1" xmlns="http://www.w3.org/2000/svg" xmlns:xlink="http://www.w3.org/1999/xlink" xmlns:sketch="http://www.bohemiancoding.com/sketch/ns">
    <!-- Generator: Sketch 3.4.4 (17249) - http://www.bohemiancoding.com/sketch -->
    <title>Imported Layers 2</title>
    <desc>Created with Sketch.</desc>
    <defs></defs>
    <g id="Page-1" stroke="none" stroke-width="1" fill="none" fill-rule="evenodd" sketch:type="MSPage">
        <g id="Reader-vertical" sketch:type="MSArtboardGroup" transform="translate(-802.000000, -14.000000)" fill="#948784">
            <path d="M815.83908,14 L803.977011,14 C802.889747,14 802,14.8897471 802,15.9770115 L802,27.8390805 C802,28.9265287 802.889747,29.816092 803.977011,29.816092 L809.976276,29.816092 L809.976276,24.1451034 L808.082575,24.1451034 L808.082575,21.6744828 L809.976276,21.6744828 L809.976276,20.4367816 C809.976276,18.5289195 811.385195,17.0344828 813.183632,17.0344828 L814.929287,17.0344828 L814.929287,19.8241839 L813.36754,19.8241839 C812.958713,19.8241839 812.838805,20.0588506 812.838805,20.3832644 L812.838805,21.6744828 L814.929287,21.6744828 L814.929287,24.1451034 L812.838805,24.1451034 L812.838805,29.816092 L815.83908,29.816092 C816.926713,29.816092 817.816092,28.9265287 817.816092,27.8390805 L817.816092,15.9770115 C817.816092,14.8897471 816.926713,14 815.83908,14" id="Imported-Layers-2" sketch:type="MSShapeGroup"></path>
        </g>
    </g>
</svg>