<?xml version="1.0" encoding="UTF-8" standalone="no"?>
<svg width="17px" height="18px" viewBox="0 0 17 18" version="1.1" xmlns="http://www.w3.org/2000/svg" xmlns:xlink="http://www.w3.org/1999/xlink" xmlns:sketch="http://www.bohemiancoding.com/sketch/ns">
    <!-- Generator: Sketch 3.4.4 (17249) - http://www.bohemiancoding.com/sketch -->
    <title>Imported Layers 4</title>
    <desc>Created with Sketch.</desc>
    <defs></defs>
    <g id="Page-1" stroke="none" stroke-width="1" fill="none" fill-rule="evenodd" sketch:type="MSPage">
        <g id="Reader-vertical" sketch:type="MSArtboardGroup" transform="translate(-845.000000, -12.000000)" fill="#948784">
            <g id="Imported-Layers-4" sketch:type="MSLayerGroup" transform="translate(845.000000, 12.000000)">
                <path d="M3.9073072,1.9498919 C3.9073072,2.97778002 3.18456688,3.8103404 1.99528701,3.8103404 C0.876549839,3.8103404 0.153809524,2.97778002 0.153809524,1.9498919 C0.153809524,0.897055966 0.899941281,0.08925 2.0420699,0.08925 C3.18456688,0.08925 3.88428412,0.897055966 3.9073072,1.9498919 L3.9073072,1.9498919 Z M0.247006924,5.27916642 L3.79108672,5.27916642 L3.79108672,17.250437 L0.247006924,17.250437 L0.247006924,5.27916642 Z" id="Fill-1" sketch:type="MSShapeGroup"></path>
                <path d="M5.91178805,9.09830748 C5.91178805,7.60511384 5.86537353,6.35675676 5.81895901,5.27916642 L8.89613089,5.27916642 L9.0596868,6.94409378 L9.12949276,6.94409378 C9.59584813,6.16026864 10.7383451,5.00976884 12.6503653,5.00976884 C14.9817738,5.00976884 16.7304222,6.65013518 16.7304222,10.1753176 L16.7304222,17.2506304 L13.1863424,17.2506304 L13.1863424,10.6160621 C13.1863424,9.07374647 12.6733884,8.02129733 11.3909111,8.02129733 C10.4116017,8.02129733 9.82921,8.73105263 9.57282506,9.4166337 C9.47925929,9.66127688 9.45586785,10.0041641 9.45586785,10.3470513 L9.45586785,17.2506304 L5.91178805,17.2506304 L5.91178805,9.09830748" id="Fill-2" sketch:type="MSShapeGroup"></path>
            </g>
        </g>
    </g>
</svg>