<?xml version="1.0" encoding="UTF-8" standalone="no"?>
<svg width="17px" height="16px" viewBox="0 0 17 16" version="1.1" xmlns="http://www.w3.org/2000/svg" xmlns:xlink="http://www.w3.org/1999/xlink" xmlns:sketch="http://www.bohemiancoding.com/sketch/ns">
    <!-- Generator: Sketch 3.4.4 (17249) - http://www.bohemiancoding.com/sketch -->
    <title>Pin 5</title>
    <desc>Created with Sketch.</desc>
    <defs>
        <path id="path-1" d="M59.3815533,28.9650782 L62.5140435,24.4994332 L62.197049,24.1824387 L60.2280048,22.2133945 C59.6957148,21.6811045 59.6900511,20.8001894 60.2298898,20.2603507 L61.2104172,19.2798232 C61.754745,18.7354955 62.6246635,18.7391406 63.1634611,19.2779383 L64.1448525,20.2593297 L68.0587942,16.345388 C67.5215814,15.8081752 67.5179345,14.9292768 68.0577732,14.3894381 L69.0383006,13.4089107 C69.5826284,12.864583 70.4498079,12.8654891 70.9852268,13.4009081 L74.9172158,17.332897 C75.4454049,17.8610862 75.4490519,18.7399845 74.9092132,19.2798232 L73.9286858,20.2603507 C73.384358,20.8046784 72.5171785,20.8037723 71.9817595,20.2683533 L68.0587942,24.1732714 L69.0401856,25.1546627 C69.5724756,25.6869528 69.5781393,26.5678679 69.0383006,27.1077066 L68.0577732,28.088234 C67.5134455,28.6325618 66.643527,28.6289167 66.1047293,28.090119 L64.1356883,26.121078 L63.8186907,25.8040804 L59.3815533,28.9650782 Z"></path>
    </defs>
    <g id="Page-1" stroke="none" stroke-width="1" fill="none" fill-rule="evenodd" sketch:type="MSPage">
        <g id="Reader-vertical" sketch:type="MSArtboardGroup" transform="translate(-59.000000, -13.000000)">
            <g id="Pin-5">
                <use fill="none" sketch:type="MSShapeGroup" xlink:href="#path-1"></use>
                <use fill="#948784" fill-rule="evenodd" xlink:href="#path-1"></use>
                <use fill="none" xlink:href="#path-1"></use>
            </g>
        </g>
    </g>
</svg>