<?xml version="1.0" encoding="UTF-8" standalone="no"?>
<svg width="18px" height="15px" viewBox="0 0 18 15" version="1.1" xmlns="http://www.w3.org/2000/svg" xmlns:xlink="http://www.w3.org/1999/xlink" xmlns:sketch="http://www.bohemiancoding.com/sketch/ns">
    <!-- Generator: Sketch 3.4.4 (17249) - http://www.bohemiancoding.com/sketch -->
    <title>Imported Layers 3</title>
    <desc>Created with Sketch.</desc>
    <defs></defs>
    <g id="Page-1" stroke="none" stroke-width="1" fill="none" fill-rule="evenodd" sketch:type="MSPage">
        <g id="Reader-vertical" sketch:type="MSArtboardGroup" transform="translate(-757.000000, -15.000000)" fill="#948784">
            <path d="M774.806452,16.77 C774.150903,17.0704 773.446968,17.273 772.708,17.3644 C773.462452,16.8972 774.041548,16.1574 774.314645,15.276 C773.608387,15.7084 772.826645,16.0226 771.994581,16.192 C771.328194,15.4582 770.378645,15 769.328065,15 C767.310516,15 765.674839,16.69 765.674839,18.7748 C765.674839,19.0706 765.706968,19.3588 765.76929,19.635 C762.733484,19.4778 760.040839,17.9748 758.239484,15.6908 C757.924968,16.2484 757.744581,16.8968 757.744581,17.5886 C757.744581,18.8982 758.389484,20.0534 759.369806,20.7306 C758.771355,20.7112 758.207742,20.5416 757.715161,20.2588 C757.714774,20.2744 757.714774,20.29 757.714774,20.306 C757.714774,22.1352 758.974387,23.661 760.64529,24.0076 C760.339097,24.094 760.016258,24.1402 759.682774,24.1402 C759.447613,24.1402 759.218839,24.1166 758.995484,24.0724 C759.460387,25.572 760.81,26.6636 762.408323,26.694 C761.157806,27.7066 759.582903,28.3102 757.871355,28.3102 C757.576387,28.3102 757.285677,28.2922 757,28.2568 C758.616323,29.3284 760.536323,29.9536 762.599935,29.9536 C769.319355,29.9536 772.994065,24.201 772.994065,19.2122 C772.994065,19.049 772.990774,18.8862 772.983613,18.7238 C773.697226,18.192 774.316387,17.5272 774.806452,16.77" id="Imported-Layers-3" sketch:type="MSShapeGroup"></path>
        </g>
    </g>
</svg>